<svg width="35" height="30" viewBox="0 0 35 30" fill="none" xmlns="http://www.w3.org/2000/svg">
<path opacity="0.4" d="M1.29999 10.8953H9.31222M4.69828 6.55811H9.31298" stroke="black" stroke-width="1.44" stroke-linecap="round" stroke-linejoin="round"/>
<path d="M5.14466 24.3297L5.04253 24.3295C2.97599 24.3295 1.29999 22.6535 1.29999 20.5871V16.0652" stroke="black" stroke-width="1.44" stroke-linecap="round" stroke-linejoin="round"/>
<path d="M12.0438 24.3296H21.6031" stroke="black" stroke-width="1.44" stroke-linecap="round" stroke-linejoin="round"/>
<path d="M25.0542 20.8797L25.0548 5.96324C25.0548 3.8967 23.3788 2.2207 21.3122 2.2207H1.29999" stroke="black" stroke-width="1.44" stroke-linecap="round" stroke-linejoin="round"/>
<path d="M28.5039 24.3294L29.9571 24.3297C32.0235 24.3297 33.6994 22.6538 33.6994 20.5872V14.3892C33.6994 12.7044 32.7048 11.1774 31.1636 10.4979L25.0551 7.80261" stroke="black" stroke-width="1.44" stroke-linecap="round" stroke-linejoin="round"/>
<path opacity="0.4" d="M29.3759 15.74H33.698" stroke="black" stroke-width="1.44" stroke-linecap="round" stroke-linejoin="round"/>
<path fill-rule="evenodd" clip-rule="evenodd" d="M12.0463 24.3299C12.0463 22.4245 10.5016 20.8799 8.5962 20.8799C6.69077 20.8799 5.14612 22.4245 5.14612 24.3299C5.14612 26.2354 6.69077 27.78 8.5962 27.78C10.5016 27.78 12.0463 26.2354 12.0463 24.3299Z" stroke="black" stroke-width="1.44" stroke-linecap="round" stroke-linejoin="round"/>
<path fill-rule="evenodd" clip-rule="evenodd" d="M28.5028 24.3299C28.5028 22.4245 26.9583 20.8799 25.0528 20.8799C23.1473 20.8799 21.6027 22.4245 21.6027 24.3299C21.6027 26.2354 23.1473 27.78 25.0528 27.78C26.9583 27.78 28.5028 26.2354 28.5028 24.3299Z" stroke="black" stroke-width="1.44" stroke-linecap="round" stroke-linejoin="round"/>
</svg>
